<svg xmlns="http://www.w3.org/2000/svg" viewBox="0 0 24 24" width="24" height="24" fill="none" stroke="#3498db" stroke-width="2" stroke-linecap="round" stroke-linejoin="round">
  <path d="M 4,10 C 6,6 8,8 10,10 C 12,12 14,12 16,10 C 18,8 20,6 22,10" />
  <path d="M 2,14 C 4,10 6,12 8,14 C 10,16 12,16 14,14 C 16,12 18,10 20,14" />
  <path d="M 4,18 C 6,14 8,16 10,18 C 12,20 14,20 16,18 C 18,16 20,14 22,18" />
  <circle cx="12" cy="12" r="10" stroke="#3498db" stroke-width="1.5" fill="none" opacity="0.3"/>
</svg>